<?xml version="1.0" encoding="UTF-8" standalone="no"?>
<svg
   xmlns:dc="http://purl.org/dc/elements/1.1/"
   xmlns:cc="http://creativecommons.org/ns#"
   xmlns:rdf="http://www.w3.org/1999/02/22-rdf-syntax-ns#"
   xmlns:svg="http://www.w3.org/2000/svg"
   xmlns="http://www.w3.org/2000/svg"
   id="svg8"
   version="1.1"
   viewBox="0 0 44.65667 39.910664"
   height="39.910664mm"
   width="44.65667mm">
  <defs
     id="defs2" />
  <metadata
     id="metadata5">
    <rdf:RDF>
      <cc:Work
         rdf:about="">
        <dc:format>image/svg+xml</dc:format>
        <dc:type
           rdf:resource="http://purl.org/dc/dcmitype/StillImage" />
        <dc:title></dc:title>
      </cc:Work>
    </rdf:RDF>
  </metadata>
  <g
     transform="translate(-79.475426,-201.6367)"
     id="layer1">
    <path
       id="path4630"
       d="m 46.816962,139.11692 c -8.402884,0.018 -16.559706,2.05527 -17.602008,5.25647 l 1.528106,26.00264 c 8.248637,13.37375 23.969039,13.59475 32.911461,0 l 1.262245,-26.00264 c -3.079668,-3.71632 -10.685496,-5.27238 -18.099804,-5.25647 z m -7.726913,7.45317 a 2.4939631,3.957821 0 0 1 2.493724,3.95792 2.4939631,3.957821 0 0 1 -2.493724,3.95793 2.4939631,3.957821 0 0 1 -2.494117,-3.95793 2.4939631,3.957821 0 0 1 2.494117,-3.95792 z m 16.014735,0 a 2.4939631,3.957821 0 0 1 2.493722,3.95792 2.4939631,3.957821 0 0 1 -2.493722,3.95793 2.4939631,3.957821 0 0 1 -2.494117,-3.95793 2.4939631,3.957821 0 0 1 2.494117,-3.95792 z m -16.877795,18.05957 h 1.067386 c 0.615372,1.63099 2.467177,4.72158 7.67524,4.72158 5.208092,0 6.940853,-3.09061 7.493395,-4.72158 h 1.02952 c 0,0 -0.73232,5.70456 -8.511872,5.70456 -7.779543,0 -8.753667,-5.70456 -8.753669,-5.70456 z"
       style="opacity:1;fill:#000000;fill-rule:nonzero;stroke:none;stroke-width:2.10224199;stroke-miterlimit:4;stroke-dasharray:none;stroke-opacity:1" />
    <path
       id="path4558"
       d="m 87.131894,141.99533 c -3.603536,0.059 -5.489609,3.32419 -5.276263,6.57625 0.443075,6.75391 3.175678,13.84472 3.471066,20.34377 1.012431,5.14308 -1.22527,12.09496 2.940411,12.09496 h 10.285996 l 3.514256,-26.47226 -1.88434,-2.47467 -0.0356,0.0481 -2.931114,-3.94478 -3.27197,-1.01955 -0.789521,-4.44724 c -1.544938,-0.13368 -3.216532,-0.32801 -4.887761,-0.61641 -0.382937,-0.0661 -0.762434,-0.0943 -1.135213,-0.0882 z m 26.031176,0 c -0.37278,-0.007 -0.75228,0.022 -1.13521,0.0881 -1.67123,0.2884 -3.34283,0.48273 -4.88777,0.61641 l -0.78952,4.44724 -3.27197,1.01956 -1.80116,2.42415 2.11899,2.54541 -3.738006,27.87407 h 0.489056 11.88038 c 4.16566,0 1.92798,-6.95189 2.94041,-12.09497 0.29539,-6.49905 2.73277,-13.58985 3.17584,-20.34377 0.21335,-3.25207 -1.3775,-6.51724 -4.98104,-6.57625 z m -17.298382,2.09312 4.282792,5.09222 4.2828,-5.09222 -4.2828,0.63731 z m 10.898212,12.36118 h 6.41188 c 0.22854,0 0.41273,0.15858 0.41273,0.35577 v 0.43521 c 0,0.19719 -0.18419,0.35577 -0.41273,0.35577 h -6.41188 c -0.22854,0 -0.41233,-0.15858 -0.41233,-0.35577 v -0.43521 c 0,-0.19719 0.18379,-0.35577 0.41233,-0.35577 z"
       style="opacity:1;fill:#000000;fill-rule:nonzero;stroke:none;stroke-width:2.14391375;stroke-miterlimit:4;stroke-dasharray:none;stroke-opacity:1" />
    <path
       id="rect4604"
       d="m 40.178504,190.5587 c -1.01312,0.37018 -1.59872,1.3931 -1.86489,2.38612 -0.38945,1.08972 -0.7789,2.17943 -1.16835,3.26915 -0.66677,0.59392 -1.51878,1.11133 -1.78361,2.01951 -0.87911,3.73937 -0.75932,7.60475 -0.977,11.4149 -0.01,0.24361 -0.0192,0.48722 -0.0288,0.73083 -0.19958,0.15531 -0.52229,-0.075 -0.46064,-0.314 -0.64885,-2.70485 -0.99969,-5.46781 -1.51264,-8.19917 -0.40521,-0.69339 -1.2781,-1.07145 -2.06095,-0.89101 -0.70548,1.30388 -0.65496,2.82608 -0.85625,4.25476 -0.5446,5.97508 0.99212,12.07159 4.09033,17.18997 1.38859,2.40729 2.6207,4.95926 4.55171,6.99484 1.50792,1.52968 3.2553,2.90066 4.28529,4.82698 1.25321,2.35354 1.67182,5.0179 2.1989,7.59964 0.35093,1.56348 0.95488,3.17205 2.20319,4.24137 0.85896,0.69423 2.05759,0.7885 3.0961,0.51473 1.13233,-0.24311 2.25069,-0.54763 3.3829,-0.7915 1.91036,-0.46448 3.87891,-1.02588 5.432603,-2.28541 1.00157,-0.849 1.40916,-2.28078 1.09416,-3.5439 -0.32243,-1.87012 -1.217343,-3.58343 -1.558123,-5.44988 -0.34863,-1.59439 -0.51844,-3.22103 -0.67737,-4.84334 0.19255,-1.86895 0.85537,-3.64156 1.273843,-5.46381 0.62904,-2.3975 1.01907,-4.85819 1.12828,-7.33524 0.14677,-2.45679 0.0929,-4.94028 0.56505,-7.3656 0.34978,-1.42115 1.14438,-2.68781 1.51899,-4.09776 0.0459,-0.82981 -0.78252,-1.48968 -1.57444,-1.45527 -0.92969,-0.0163 -1.76254,0.47589 -2.553093,0.90498 -1.63041,1.01778 -2.7641,2.69792 -3.33984,4.51083 -0.49129,1.21303 -0.94141,2.44554 -1.5328,3.61502 -0.9676,0.87758 -2.672,0.60273 -3.36479,-0.48773 -1.92349,-2.17544 -3.20416,-4.80728 -4.54293,-7.35852 -1.10125,-2.3488 -1.44962,-4.95633 -1.64254,-7.51795 -0.23742,-2.09289 -0.52935,-4.24028 -1.49544,-6.13919 -0.41692,-0.56933 -1.09919,-1.00386 -1.82687,-0.93435 z"
       style="opacity:1;fill:#000000;fill-rule:nonzero;stroke:none;stroke-width:0.21626429;stroke-miterlimit:4;stroke-dasharray:none;stroke-opacity:1" />
    <path
       id="rect4637"
       d="m 89.133835,201.64798 c -1.746537,0.1267 -3.656898,0.44217 -5.274181,1.19559 -1.039484,0.77595 -1.34971,2.16254 -1.285107,3.39599 -0.22335,4.79729 0.298815,9.63724 -0.499297,14.39997 -0.53554,3.94116 -1.703786,7.75602 -2.492894,11.64659 -0.317091,2.31294 0.0414,4.82724 1.475149,6.72829 1.157252,1.46522 3.039413,2.13554 4.849504,2.28674 3.355667,0.38382 6.720776,-0.16578 10.030961,-0.6825 2.130922,-0.32993 4.31031,-0.56261 6.4558,-0.22195 3.29589,0.4038 6.56076,1.35517 9.90847,1.11123 3.11193,-0.33338 5.95195,-1.9053 8.33875,-3.8628 1.52235,-1.25744 2.94095,-2.83103 3.3964,-4.80547 0.21964,-0.96446 0.0918,-2.14396 -0.75196,-2.7786 -0.70343,-0.56998 -1.68429,-0.67782 -2.5391,-0.44394 -1.92217,0.27094 -3.89981,0.65766 -5.82553,0.19707 -2.96287,-0.52817 -5.72778,-1.76501 -8.58737,-2.65601 -2.08629,-0.74421 -4.23222,-1.42663 -6.1023,-2.64296 -1.612231,-1.37458 -2.390448,-3.48751 -2.599255,-5.54958 -0.663902,-4.3865 -1.054587,-8.8521 -0.594487,-13.28027 -0.197199,-1.27821 -1.190085,-2.19891 -2.517939,-3.05783 -1.746454,-0.67406 -3.490744,-1.06342 -5.385614,-0.97956 z"
       style="opacity:1;fill:#000000;fill-rule:nonzero;stroke:none;stroke-width:0.28962496;stroke-miterlimit:4;stroke-dasharray:none;stroke-opacity:1" />
  </g>
</svg>
